<svg
    xmlns="http://www.w3.org/2000/svg"
     viewBox="0 0 24 24"
     enable-background="new 0 0 24 24"
>
  <path
      fill-rule="evenodd"
      d="M12 1.293a7.13 7.13 0 0 0-7.125 7.125A7.13 7.13 0 0 0 12 15.543a7.13 7.13 0 0 0 7.125-7.125A7.13 7.13 0 0 0 12 1.293zM4.125 8.418C4.125 4.07 7.648.543 12 .543s7.875 3.527 7.875 7.875c0 1.84-.63 3.53-1.687 4.87l3.44 7.203-3.81-.422-2.117 3.387-3.328-7.172c-.125.008-.246.008-.37.008s-.246-.004-.37-.008L8.3 23.457 6.188 20.07l-3.816.422 3.44-7.2a7.83 7.83 0 0 1-1.687-4.875zm9.04 7.79c1.75-.258 3.31-1.094 4.488-2.305l2.72 5.69-2.94-.328-1.633 2.617zm-6.816-2.3c1.18 1.21 2.738 2.047 4.488 2.305l-2.633 5.676-1.637-2.617-2.94.328zm7.066-7.047l-1.387-2.867-1.43 2.844-3.148.434 2.258 2.242-.562 3.13 2.828-1.457 2.805 1.5-.512-3.14L16.56 7.34zM11.1 7.53l.922-1.84.895 1.852 2.035.31-1.484 1.426.336 2.027-1.812-.97-1.824.94.363-2.027-1.465-1.445zm0 0"
  ></path>
</svg>